<svg width="760" height="360" viewBox="0 0 760 360" fill="none" xmlns="http://www.w3.org/2000/svg">
  <defs>
    <linearGradient id="room" x1="0" y1="0" x2="760" y2="360"><stop stop-color="#2A1B12"/><stop offset="0.5" stop-color="#6A4523"/><stop offset="1" stop-color="#121A16"/></linearGradient>
    <linearGradient id="screen" x1="0" y1="0" x2="1" y2="1"><stop stop-color="#0B6B3A"/><stop offset="1" stop-color="#063B24"/></linearGradient>
    <linearGradient id="gold" x1="0" y1="0" x2="0" y2="1"><stop stop-color="#E4B64A"/><stop offset="1" stop-color="#C98A13"/></linearGradient>
  </defs>
  <rect width="760" height="360" rx="28" fill="url(#room)"/>
  <rect x="36" y="38" width="688" height="284" rx="22" fill="white" fill-opacity="0.06" stroke="#F5D46A" stroke-opacity="0.2"/>
  <rect x="270" y="56" width="220" height="126" rx="14" fill="url(#screen)" stroke="#E4B64A" stroke-opacity="0.45"/>
  <text x="322" y="100" fill="white" font-family="Inter,Arial" font-size="22" font-weight="800">WC26 League</text>
  <text x="313" y="136" fill="#F5D46A" font-family="Inter,Arial" font-size="18" font-weight="700">Cafe Leaderboard</text>
  <rect x="304" y="152" width="152" height="12" rx="6" fill="#E4B64A" opacity="0.9"/>
  <circle cx="140" cy="270" r="42" fill="#1E3B2B"/>
  <circle cx="140" cy="216" r="24" fill="#D9B084"/>
  <path d="M96 332c12-48 78-48 90 0" fill="#0B6B3A"/>
  <circle cx="248" cy="274" r="42" fill="#382215"/>
  <circle cx="248" cy="220" r="24" fill="#C98A6A"/>
  <path d="M204 336c12-48 78-48 90 0" fill="#C98A13"/>
  <circle cx="522" cy="274" r="42" fill="#1D2A20"/>
  <circle cx="522" cy="220" r="24" fill="#D9B084"/>
  <path d="M478 336c12-48 78-48 90 0" fill="#0B6B3A"/>
  <circle cx="630" cy="274" r="42" fill="#2D2119"/>
  <circle cx="630" cy="220" r="24" fill="#BE835B"/>
  <path d="M586 336c12-48 78-48 90 0" fill="#E4B64A"/>
  <rect x="96" y="310" width="560" height="22" rx="11" fill="#0E1F1A" opacity="0.55"/>
  <circle cx="380" cy="28" r="120" fill="#F5D46A" opacity="0.08"/>
  <rect x="52" y="66" width="116" height="78" rx="12" fill="#120C08" opacity="0.45"/>
  <path d="M82 100h56" stroke="#E4B64A" stroke-width="8" stroke-linecap="round"/>
  <path d="M82 120h36" stroke="#0B6B3A" stroke-width="8" stroke-linecap="round"/>
  <text x="58" y="174" fill="white" font-family="Inter,Arial" font-size="17" font-weight="700">Không khí xem bóng đá</text>
  <text x="58" y="200" fill="white" fill-opacity="0.74" font-family="Inter,Arial" font-size="14">Quét QR, dự đoán và leo top ngay tại quán.</text>
  <rect x="566" y="66" width="120" height="120" rx="14" fill="white"/>
  <path d="M584 84h28v28h-28zM640 84h28v28h-28zM584 140h28v28h-28z" fill="#10201A"/>
  <path d="M620 92h10v10h-10zM622 122h16v12h-16zM648 130h10v10h-10zM626 150h42v18h-42z" fill="#10201A"/>
  <rect x="566" y="202" width="120" height="40" rx="12" fill="url(#gold)"/>
  <text x="588" y="228" fill="white" font-family="Inter,Arial" font-size="14" font-weight="800">Tạo Cafe League</text>
</svg>
