<svg width="280" height="72" viewBox="0 0 280 72" fill="none" xmlns="http://www.w3.org/2000/svg">
  <defs>
    <linearGradient id="gold" x1="18" y1="8" x2="54" y2="62" gradientUnits="userSpaceOnUse">
      <stop stop-color="#F5D46A"/>
      <stop offset="0.55" stop-color="#C98A13"/>
      <stop offset="1" stop-color="#8B5A05"/>
    </linearGradient>
    <linearGradient id="green" x1="0" y1="0" x2="1" y2="1">
      <stop stop-color="#0B6B3A"/>
      <stop offset="1" stop-color="#064F2D"/>
    </linearGradient>
  </defs>
  <rect x="1" y="1" width="70" height="70" rx="35" fill="#FBFAF6" stroke="#EADFCB" stroke-width="2"/>
  <circle cx="36" cy="36" r="25" fill="url(#green)"/>
  <path d="M27 15h18c0 8-2 15-6 20v9h8v6H25v-6h8v-9c-4-5-6-12-6-20Z" fill="url(#gold)"/>
  <path d="M27 19c-7 0-10 5-8 11 2 7 7 9 13 9v-5c-5 0-8-2-9-6-1-3 0-5 4-5v-4Zm18 0c7 0 10 5 8 11-2 7-7 9-13 9v-5c5 0 8-2 9-6 1-3 0-5-4-5v-4Z" fill="url(#gold)"/>
  <path d="M29 56h14l4 6H25l4-6Z" fill="#0B6B3A"/>
  <text x="88" y="34" font-family="Inter, Arial, sans-serif" font-size="28" font-weight="800" fill="#10201A">WC26</text>
  <text x="90" y="53" font-family="Inter, Arial, sans-serif" font-size="13" font-weight="700" letter-spacing="7" fill="#0B6B3A">LEAGUE</text>
</svg>
